<svg preserveAspectRatio="none" width="100%" height="100%" overflow="visible" style="display: block;" viewBox="0 0 53.4649 59.3877" fill="none" xmlns="http://www.w3.org/2000/svg">
<g id="line/artificial intelligence/spark/ai-tools-spark--tool-share-hand-give-artificial-intelligence-ai">
<path id="Vector 1863" d="M0.125 57.3877H26.3751L50.1251 49.8877V48.9072C50.1251 45.3067 47.2061 42.3877 43.6054 42.3877C42.9554 42.3877 42.3091 42.4847 41.6881 42.676L26.8061 47.255C26.5203 47.343 26.2228 47.3877 25.9238 47.3877H13.875" stroke="var(--stroke-0, #3CCBDA)" stroke-width="4"/>
<path id="Vector 3020" d="M26.3751 47.3877V39.8877L10.6483 37.4683C6.10095 36.7685 2 40.287 2 44.8877" stroke="var(--stroke-0, #3CCBDA)" stroke-width="4"/>
<g id="Component 3">
<path id="Vector 3018" d="M18.4648 17.5C28.1871 17.5 35.9648 9.72223 35.9648 0C35.9648 9.72223 43.7426 17.5 53.4648 17.5C43.7426 17.5 35.9648 25.2778 35.9648 35C35.9648 25.2778 28.1871 17.5 18.4648 17.5Z" stroke="var(--stroke-0, #3CCBDA)" stroke-width="4"/>
</g>
</g>
</svg>
