<?xml version="1.0" encoding="UTF-8"?>
<svg id="Ebene_1" xmlns="http://www.w3.org/2000/svg" xmlns:xlink="http://www.w3.org/1999/xlink" version="1.1" viewBox="0 0 1346 280">
  <!-- Generator: Adobe Illustrator 30.2.1, SVG Export Plug-In . SVG Version: 2.1.1 Build 1)  -->
  <defs>
    <style>
      .st0 {
        fill: none;
      }

      .st1 {
        fill: #fff;
      }

      .st2 {
        fill: #31c8db;
      }

      .st3 {
        clip-path: url(#clippath);
      }
    </style>
    <clipPath id="clippath">
      <rect class="st0" width="1345.89" height="279.69"/>
    </clipPath>
  </defs>
  <g class="st3">
    <g>
      <path class="st1" d="M408.52,132.51l-16.8-3.33c-4.4-.93-7.47-2.13-9.33-3.73-1.87-1.6-2.67-3.6-2.67-5.87s1.33-5.2,4.13-6.93c2.8-1.73,6.27-2.53,10.4-2.53s8.13,1.07,10.93,3.07c2.67,2,4.53,4.67,5.47,7.73l22.13-3.87c-1.07-5.06-3.33-9.46-6.67-13.2-3.33-3.73-7.73-6.53-13.07-8.67-5.33-2-11.73-3.07-19.06-3.07s-14.8,1.2-20.53,3.47c-5.73,2.27-10.4,5.6-13.6,10-3.33,4.27-4.93,9.46-4.93,15.46s2.27,12.66,6.66,17.06c4.4,4.4,11.2,7.6,20.13,9.33l16.13,3.33c4,.8,7.07,2,9.07,3.6,2,1.6,2.93,3.6,2.93,6s-1.33,5.07-4.13,6.93c-2.8,1.87-6.53,2.67-11.33,2.67s-9.2-1.07-12.27-3.2c-3.07-2.13-5.2-5.47-6.4-9.73l-23.2,4c1.07,5.73,3.47,10.66,7.07,14.8,3.6,4.13,8.4,7.2,14.13,9.33,5.73,2.13,12.4,3.2,19.86,3.2s15.33-1.33,21.6-3.87c6.27-2.53,11.2-6.13,14.66-10.66,3.47-4.53,5.33-9.87,5.33-16s-2.13-12.13-6.53-16.26c-4.4-4.13-11.06-7.07-20.13-8.93v-.13Z"/>
      <path class="st1" d="M518.1,98.25c-6.8-4-14.93-6-24.26-6s-17.46,2-24.26,6c-6.8,4-12.13,9.6-15.73,16.8-3.73,7.2-5.6,15.6-5.6,25.33s1.87,17.86,5.6,25.06c3.73,7.2,8.93,12.8,15.73,16.8,6.8,4,14.93,6,24.26,6s17.46-2,24.26-6c6.8-4,12-9.6,15.73-16.8,3.73-7.2,5.6-15.6,5.6-25.06s-1.87-18.13-5.6-25.33c-3.73-7.2-8.93-12.8-15.73-16.8ZM511.71,154.77c-1.47,4.27-3.73,7.73-6.8,10.13-2.93,2.53-6.67,3.73-11.2,3.73s-8.13-1.2-11.07-3.73c-2.93-2.53-5.2-5.87-6.67-10.13-1.47-4.27-2.27-9.2-2.27-14.53s.8-10.4,2.27-14.66c1.47-4.27,3.73-7.6,6.67-10.13,2.93-2.4,6.67-3.73,11.07-3.73s8.13,1.2,11.2,3.73c2.93,2.4,5.2,5.86,6.8,10.13,1.47,4.27,2.27,9.2,2.27,14.66s-.8,10.26-2.27,14.53Z"/>
      <path class="st1" d="M616.75,147.18c0,4.13-.8,7.6-2.27,10.53-1.47,2.93-3.6,5.2-6.4,6.67-2.67,1.47-5.87,2.27-9.46,2.27-5.2,0-9.33-1.6-12.26-4.93-2.93-3.33-4.53-7.87-4.53-13.6v-54.92h-25.06v59.19c0,7.33,1.33,13.6,4,18.8,2.67,5.2,6.4,9.33,11.2,12.13,4.8,2.8,10.53,4.27,16.93,4.27s14.13-2.13,19.06-6.4c4.13-3.47,7.47-8.27,9.86-14.26l.27,19.46h23.73v-93.18h-25.06v53.99Z"/>
      <path class="st1" d="M704.34,167.57c-1.73.27-3.07.4-4,.4-3.07,0-5.2-.67-6.53-2.13s-2-3.6-2-6.53v-46.79h17.46v-19.06h-17.46v-22.13h-25.06v22.13h-12.8v19.06h12.8v49.06c0,8.53,2.53,15.06,7.47,19.6,4.93,4.53,12.13,6.8,21.46,6.8s5.07-.13,7.87-.53c2.8-.4,5.47-.93,8.27-1.73l-3.6-18.8c-.93.27-2.13.4-3.87.67Z"/>
      <path class="st1" d="M795.66,96.38c-4.8-2.8-10.4-4.27-16.93-4.27s-14.26,2.13-19.33,6.4c-3.73,3.2-6.8,7.47-9.07,12.66v-48.93h-24.53v124.11h25.06v-53.86c0-4.13.8-7.73,2.27-10.53,1.47-2.93,3.73-5.07,6.4-6.67,2.8-1.47,5.87-2.27,9.33-2.27,5.33,0,9.47,1.6,12.4,4.93,2.93,3.33,4.4,7.86,4.4,13.6v54.92h25.06v-59.19c0-7.33-1.33-13.6-4-18.8-2.67-5.2-6.4-9.33-11.2-12.13h.13Z"/>
      <path class="st1" d="M929.37,127.71c-1.47,6.4-2.93,13.07-4.4,20.4-1.07,4.93-2,10.13-2.93,15.6-1.07-5.6-2.13-10.8-3.33-15.73-1.73-7.2-3.33-14-4.67-20.26l-8.27-34.39h-22.93l-8.53,34.39c-1.47,6.27-3.07,13.07-4.8,20.4-1.2,4.93-2.27,10.13-3.2,15.46-.93-5.6-2-10.93-3.07-15.73-1.6-7.2-3.07-14-4.53-20.13l-8.13-34.39h-26.26l27.46,93.18h25.46l10.4-35.86c1.07-3.6,2-7.47,2.93-11.87,1.07-4.4,2-8.8,2.93-13.33.27-1.07.4-2.13.67-3.2.27,1.07.4,2.13.67,3.2.93,4.53,1.87,8.93,2.93,13.33,1.07,4.4,2,8.4,2.93,12l10.4,35.86h25.46l27.73-93.18h-26.53l-8.13,34.39-.27-.13Z"/>
      <path class="st1" d="M1046.68,103.85c-4-3.87-8.66-6.8-13.86-8.8-5.34-2-10.94-2.93-17.07-2.93-9.06,0-16.93,2-23.73,6.13-6.67,4-11.86,9.73-15.6,16.93-3.73,7.2-5.47,15.6-5.47,25.2s1.87,18.4,5.6,25.46c3.73,7.07,8.93,12.67,15.86,16.53,6.93,3.87,15.07,5.86,24.53,5.86s13.73-1.07,19.33-3.2c5.6-2.13,10.27-5.07,14-8.93s6.4-8.4,7.86-13.46l-22.66-4.27c-.93,2.4-2.13,4.4-3.86,6-1.74,1.6-3.74,2.93-6.14,3.73-2.4.8-5.06,1.2-7.99,1.2-4.27,0-8.14-.93-11.34-2.8-3.2-1.87-5.73-4.53-7.6-8.27-1.6-3.33-2.53-7.33-2.67-12.13h63.72v-6.93c0-8-1.07-14.93-3.33-20.8-2.27-5.87-5.33-10.8-9.33-14.67l-.27.13ZM1004.95,113.98c3.07-2,6.67-2.93,11.07-2.93s7.86.93,10.8,2.93c2.93,2,5.06,4.8,6.53,8.27,1.07,2.53,1.73,5.33,2,8.4h-39.46c.27-3.2,1.07-6,2.13-8.67,1.6-3.47,3.87-6.13,6.93-8.13v.13Z"/>
      <path class="st1" d="M1128.53,132.51l-16.79-3.33c-4.4-.93-7.47-2.13-9.34-3.73-1.86-1.6-2.66-3.6-2.66-5.87s1.33-5.2,4.13-6.93c2.8-1.73,6.27-2.53,10.4-2.53s8.13,1.07,10.93,3.07c2.67,2,4.53,4.67,5.47,7.73l22.13-3.87c-1.07-5.06-3.34-9.46-6.67-13.2-3.33-3.73-7.73-6.53-13.06-8.67-5.34-2-11.74-3.07-19.07-3.07s-14.8,1.2-20.53,3.47c-5.73,2.27-10.4,5.6-13.59,10-3.34,4.27-4.94,9.46-4.94,15.46s2.27,12.66,6.67,17.06c4.4,4.4,11.2,7.6,20.13,9.33l16.13,3.33c4,.8,7.06,2,9.06,3.6,2,1.6,2.94,3.6,2.94,6s-1.34,5.07-4.14,6.93c-2.8,1.87-6.53,2.67-11.33,2.67s-9.2-1.07-12.26-3.2c-3.07-2.13-5.2-5.47-6.4-9.73l-23.2,4c1.07,5.73,3.47,10.66,7.07,14.8,3.6,4.13,8.4,7.2,14.13,9.33s12.4,3.2,19.86,3.2,15.33-1.33,21.6-3.87c6.26-2.53,11.2-6.13,14.66-10.66,3.47-4.53,5.34-9.87,5.34-16s-2.14-12.13-6.54-16.26c-4.4-4.13-11.06-7.07-20.13-8.93v-.13Z"/>
      <path class="st1" d="M1213.45,167.57c-1.73.27-3.06.4-4,.4-3.06,0-5.2-.67-6.53-2.13-1.33-1.47-2-3.6-2-6.53v-46.79h17.46v-19.06h-17.46v-22.13h-25.06v22.13h-12.8v19.06h12.8v49.06c0,8.53,2.53,15.06,7.46,19.6,4.94,4.53,12.13,6.8,21.47,6.8s5.06-.13,7.86-.53c2.8-.4,5.47-.93,8.27-1.73l-3.6-18.8c-.94.27-2.14.4-3.87.67Z"/>
      <path class="st1" d="M1301.84,122.25l40.12-59.86h-28.79l-13.87,20.8c-2.53,4-4.66,7.47-6.39,10.66-1.74,3.2-3.2,6.13-4.54,9.07-.4.8-.8,1.6-1.2,2.4-.4-.8-.8-1.6-1.2-2.4-1.33-2.93-2.8-6-4.53-9.07-1.6-3.2-3.73-6.67-6.27-10.66l-13.59-20.8h-29.46l40.66,60.66-44.66,63.46h29.46l17.86-26c2.4-3.47,4.27-6.53,5.6-8.93,1.47-2.53,2.8-4.8,3.87-6.93.66-1.2,1.2-2.4,1.86-3.6.67,1.33,1.34,2.53,2,3.73,1.2,2.13,2.4,4.53,3.87,6.93,1.46,2.4,3.2,5.47,5.6,8.93l17.19,25.99h30.13l-43.86-64.26.14-.13Z"/>
      <path class="st2" d="M229.35,139.84L331.2,0h-25.6l-101.98,139.84,86.79,119.05h-75.85l-48.79-66.92-48.79,66.92H41.12L229.76,0H.19l89.05,122.25,12.93-17.6L41.12,20.8h147.71L.19,279.68h127.18l38.39-52.52,38.26,52.52h127.18l-101.85-139.84Z"/>
    </g>
  </g>
</svg>